<svg xmlns="http://www.w3.org/2000/svg" viewBox="0 0 100.71 112.82"><defs><style>.cls-1{fill:#86c3d0;}.cls-2{fill:#fff;}.cls-3{font-size:12px;fill:#1d1d1b;font-family:MyriadPro-Regular, Myriad Pro;}.cls-4{letter-spacing:-0.01em;}.cls-5{letter-spacing:0.01em;}.cls-6{letter-spacing:0em;}.cls-7{letter-spacing:-0.01em;}.cls-8{letter-spacing:0.01em;}.cls-9{letter-spacing:-0.01em;}.cls-10{letter-spacing:-0.01em;}.cls-11{letter-spacing:-0.01em;}</style></defs><g id="API"><path class="cls-1" d="M50.35,13.37a43,43,0,1,0,43.05,43A43,43,0,0,0,50.35,13.37Z"/><path class="cls-2" d="M50.19,33.75c5.8,0,6.55.53,8.36,6Q63.89,55.88,69.21,72c.93,2.81.07,5.25-2.08,6.38-2.88,1.51-5.87.31-7.08-2.94-.79-2.12-1.31-4.35-2.23-6.41a3.29,3.29,0,0,0-2.24-1.77,92.3,92.3,0,0,0-10.52,0,3.27,3.27,0,0,0-2.19,1.8c-.85,2-1.32,4.13-2,6.18-1.06,3-3.47,4.32-6.17,3.49-2.87-.88-4.19-3.37-3.22-6.5q5-16.11,10.12-32.17C43.4,34.27,44.12,33.75,50.19,33.75Z"/></g><g id="HOSTING"><text class="cls-3" transform="translate(92.45 -4.98)">OpenID <tspan class="cls-4" x="41.17" y="0">C</tspan><tspan x="48" y="0">onne</tspan><tspan class="cls-5" x="73.92" y="0">c</tspan><tspan class="cls-6" x="79.45" y="0">t - </tspan><tspan class="cls-7" x="92.19" y="0">U</tspan><tspan x="99.89" y="0">ser</tspan><tspan class="cls-8" x="114.57" y="0">I</tspan><tspan x="117.56" y="0">n</tspan><tspan class="cls-9" x="124.22" y="0">f</tspan><tspan x="127.57" y="0">o</tspan></text><text class="cls-3" transform="translate(17.93 -4.98)"><tspan class="cls-10">O</tspan><tspan class="cls-11" x="8.1" y="0">A</tspan><tspan x="15.3" y="0">uth2</tspan></text></g></svg>